<?xml version="1.0" encoding="UTF-8" standalone="no"?>
<!-- Created with Inkscape (http://www.inkscape.org/) -->

<svg
   width="200mm"
   height="200mm"
   viewBox="0 0 199.99999 200"
   version="1.1"
   id="svg1"
   inkscape:version="1.4 (e7c3feb100, 2024-10-09)"
   sodipodi:docname="roboticdinosaur.svg"
   xmlns:inkscape="http://www.inkscape.org/namespaces/inkscape"
   xmlns:sodipodi="http://sodipodi.sourceforge.net/DTD/sodipodi-0.dtd"
   xmlns="http://www.w3.org/2000/svg"
   xmlns:svg="http://www.w3.org/2000/svg">
  <sodipodi:namedview
     id="namedview1"
     pagecolor="#8a8a8a"
     bordercolor="#000000"
     borderopacity="0.24705882"
     inkscape:showpageshadow="2"
     inkscape:pageopacity="0.0"
     inkscape:pagecheckerboard="0"
     inkscape:deskcolor="#d1d1d1"
     inkscape:document-units="mm"
     inkscape:zoom="0.67348485"
     inkscape:cx="270.23622"
     inkscape:cy="259.84252"
     inkscape:window-width="1920"
     inkscape:window-height="959"
     inkscape:window-x="1920"
     inkscape:window-y="32"
     inkscape:window-maximized="1"
     inkscape:current-layer="layer1" />
  <defs
     id="defs1" />
  <g
     inkscape:label="Layer 1"
     inkscape:groupmode="layer"
     id="layer1"
     transform="translate(-23.678177,-71.731564)">
    <rect
       style="fill:#ffffff;fill-opacity:1;stroke:#000000;stroke-width:0"
       id="rect1"
       width="200"
       height="200"
       x="23.678177"
       y="71.731567"
       inkscape:label="rect1" />
    <path
       style="fill:#1a1a1a;fill-opacity:1;stroke:#000000;stroke-width:0;stroke-dasharray:none;stroke-opacity:1"
       d="m 126.99072,225.66829 c 14.58243,-1.26688 67.66558,-5.77911 68.1167,-5.79014 4.43996,-0.10849 8.12858,-0.93515 9.89305,-2.21717 2.06693,-1.50175 3.16995,-5.6586 3.14089,-11.83691 -0.007,-1.49172 -0.14245,-4.30792 -0.21117,-4.38997 -0.0175,-0.0216 -3.56443,1.53783 -4.21954,1.85521 l -0.19077,0.0924 -1.24572,-2.94743 c -0.68515,-1.62106 -1.25485,-2.93976 -1.26603,-2.9304 -0.0112,0.01 -0.0179,1.5252 -0.015,3.36854 0.003,1.84335 -0.001,3.419 -0.009,3.50145 -0.0142,0.13246 -0.16124,0.21505 -1.28763,0.714 l -1.27348,0.56404 -2.47073,-0.0667 c -1.35888,-0.0367 -2.48136,-0.0794 -2.4944,-0.0949 -0.0131,-0.0155 -0.23639,-1.52403 -0.49636,-3.35218 -0.54748,-3.84952 -0.52214,-3.6817 -0.55225,-3.65553 -0.0126,0.011 -0.42415,1.56292 -0.91421,3.44848 -0.49001,1.88554 -0.90966,3.44506 -0.93255,3.46556 -0.0439,0.0394 -5.31317,-0.0876 -5.34249,-0.12879 -0.009,-0.0132 -0.24056,-1.60425 -0.51369,-3.53563 -0.32468,-2.29614 -0.51578,-3.47466 -0.55205,-3.4049 -0.0305,0.0586 -0.44999,1.6218 -0.93219,3.47356 -0.4822,1.85176 -0.88652,3.37505 -0.89851,3.3851 -0.0265,0.0223 -5.56753,-0.11781 -5.94903,-0.1504 l -0.27179,-0.0231 -0.50176,-3.51951 c -0.27594,-1.93571 -0.51981,-3.50153 -0.54194,-3.47957 -0.0221,0.0219 -0.4415,1.58209 -0.93197,3.467 -0.49047,1.88489 -0.91817,3.44034 -0.95046,3.45655 -0.0493,0.0244 -1.3969,-0.005 -5.1947,-0.11649 -0.53487,-0.0156 -0.58297,-0.0262 -0.60348,-0.13349 -0.0125,-0.0641 -0.21809,-1.50801 -0.45738,-3.20871 -0.23937,-1.70072 -0.44973,-3.11265 -0.46757,-3.13763 -0.0177,-0.0251 -0.40913,1.39167 -0.86949,3.14811 -0.46037,1.75645 -0.85117,3.20541 -0.86846,3.21987 -0.0172,0.0148 -4.45222,-0.0924 -9.85539,-0.23761 l -9.82392,-0.26397 -1.19403,-0.85626 c -0.65669,-0.47088 -4.09495,-2.93112 -7.64062,-5.46716 l -6.4466,-4.61099 -1.43041,-0.32825 c -0.78671,-0.18052 -7.08732,-1.63281 -14.00134,-3.22728 -6.914,-1.59446 -12.63336,-2.90455 -12.70966,-2.91131 -0.0822,-0.007 -0.11362,-0.0314 -0.0771,-0.0594 0.034,-0.0259 1.38482,-0.3936 3.00207,-0.81714 1.61725,-0.42356 6.3254,-1.66012 10.46255,-2.74791 l 7.52209,-1.9778 6.71705,0.96722 c 3.69442,0.53197 10.85473,1.56365 15.91187,2.29263 5.05714,0.72896 10.01449,1.44096 11.01634,1.58219 1.00186,0.14122 1.87459,0.2725 1.93936,0.2917 0.0648,0.0192 1.02112,1.16483 2.12506,2.5458 1.10397,1.38097 2.03172,2.50505 2.06168,2.49792 0.0301,-0.007 0.92096,-1.32393 1.98006,-2.92626 1.05905,-1.60232 1.949,-2.93368 1.9776,-2.9586 0.0287,-0.0249 0.96201,1.2901 2.07411,2.92229 1.11208,1.63215 2.04313,2.94796 2.06901,2.92399 0.0259,-0.0239 0.87563,-1.62388 1.88835,-3.55534 1.01275,-1.93148 1.859,-3.5028 1.88061,-3.49183 0.0216,0.011 1.2192,1.38298 2.66129,3.04886 1.44212,1.66588 2.63833,3.03031 2.65825,3.03208 0.02,0.002 0.75967,-1.74905 1.64389,-3.8907 0.88419,-2.14164 1.62837,-3.92665 1.65376,-3.9667 0.0292,-0.0461 0.98844,1.18318 2.62,3.35777 1.41562,1.88679 2.5866,3.41988 2.60218,3.40685 0.0154,-0.0131 0.76419,-1.90402 1.66364,-4.20221 0.89946,-2.29817 1.64875,-4.17598 1.6651,-4.1729 0.0161,0.002 1.23879,1.71603 2.71655,3.80658 1.47774,2.09053 2.70291,3.80285 2.72259,3.80511 0.0196,0.002 0.97785,-2.09611 2.12927,-4.66306 1.15142,-2.56697 2.11288,-4.69705 2.13664,-4.7335 0.0239,-0.0364 0.89493,1.99143 1.93601,4.5064 1.04105,2.51497 1.91043,4.55547 1.9319,4.53446 0.0776,-0.0759 4.25684,-11.70177 4.25942,-11.84887 0.002,-0.0831 -0.20649,-3.44047 -0.46222,-7.46099 l -0.4649,-7.31007 -5.27346,-9.91771 c -2.90041,-5.45472 -5.28067,-9.92769 -5.28951,-9.93991 -0.009,-0.0122 -14.64815,-2.63662 -32.53187,-5.832 l -32.5158,-5.80992 -7.8359,-6.14333 c -4.30975,-3.37883 -7.90007,-6.18695 -7.97849,-6.24027 -0.12735,-0.0866 -2.04302,-0.0202 -17.984107,0.62289 l -17.841513,0.71982 -12.872841,5.13547 -12.87284,5.13546 -8.524888,12.46629 -8.524906,12.46628 1.206224,22.60454 1.206204,22.60455 15.634847,10.5636 15.634855,10.5636 0.866091,0.12082 c 0.476348,0.0664 11.252246,1.13753 23.946416,2.38022 12.694168,1.24267 23.390218,2.29352 23.768988,2.33518 0.37878,0.0417 1.57914,0.16051 2.66747,0.26411 l 1.97878,0.18832 z"
       id="path1"
       sodipodi:nodetypes="sssssscssssscsssssssssssscssssssssssscsscsssssscssssssssssssssssssssscsssssscssscssscccccccccsssscs" />
  </g>
</svg>
